<svg xmlns="http://www.w3.org/2000/svg" viewBox="0 0 172 172"><g fill="none" stroke-miterlimit="10" font-family="none" font-weight="none" font-size="none" text-anchor="none" style="mix-blend-mode:normal"><path d="M0 172V0h172v172z"/><path d="M145.931 104.262a3.426 3.426 0 00-2.486-1.062h-5.16a3.44 3.44 0 00-3.44 3.32c-.362 10.306-3.05 11.125-6.53 11.125-3.71 0-7.283-6.463-9.863-17.79 1.034-3.683 2.606-9.663 4.622-18.263l12.04-53.32a3.48 3.48 0 00-.672-2.902 3.414 3.414 0 00-2.687-1.29h-19.606a3.461 3.461 0 00-3.372 2.7l-4.61 20.896c-2.97-7.175-6.382-13.048-10.078-17.267-5.509-6.302-13.397-9.769-22.198-9.769-12.82 0-36.214 8.694-42.584 41.293-1.196 6.02-1.787 12.094-1.787 18.558 0 58.856 39.52 60.549 44.035 60.549 15.923 0 27.748-6.154 36.698-19.23 4.246 12.619 10.521 19.23 18.342 19.23 7.767 0 11.811-5.308 15.036-11.046 3.198-5.67 4.865-13.047 5.254-23.22a3.41 3.41 0 00-.954-2.512zM95.352 87.76c-1.88 9.77-4.488 17.2-6.288 21.58-5.913 12.995-12.04 14.5-16.139 14.5-4.42 0-17.885 0-17.885-41.28 0-29.67 6.248-44.72 18.57-44.72 3.118 0 11.624 4.22 23.597 43.054z" fill="#ffffff"/></g></svg>